<svg xmlns="http://www.w3.org/2000/svg" data-version="3.4.38" data-background-color="#161618" width="550" height="333.402" viewBox="-37.72649999999996 0 500.10299999999995 333.402" x="0" y="5.799000000000007"><defs><mask id="df0e07a0-7008-11eb-9b04-8f1bd66661f7"><circle r="38.974999999999994" cx="112.32500000000002" cy="18.475" fill="white" opacity="0.2"></circle><circle r="35.475" cx="112.32500000000002" cy="18.475" fill="black" opacity="1" stroke-width="0" stroke="#ffffff" data-fill-palette-color="black" data-stroke-palette-color="primary" id="circle-0" class="circle-0" data-palette-color="black"></circle></mask></defs><rect id="background" fill="#161618" width="500.10299999999995" height="333.402" x="-37.72649999999996"></rect><g transform="matrix(1,0,0,1,100,120.5)"><g id="tight-bounds"><g></g><g><svg version="1.1" xmlns:xlink="http://www.w3.org/1999/xlink" xmlns:svgjs="http://svgjs.com/svgjs" viewBox="1.75 -36.55 224.65 36.95" width="224.65" height="36.95" x="0" y="0" data-palette-color="#ffffff"><path d="M12.68-36.15L8.88-5.38L22.03-5.38L21.40 0L1.75 0L6.20-36.15L12.68-36.15ZM42.23-36.15L37.80 0L31.28 0L35.70-36.15L42.23-36.15ZM53.67-36.15L78.40-36.15L78.13-34.13Q78.08-33.70 77.88-33.33Q77.67-32.95 77.40-32.58L77.40-32.58L57.42-5.18L74.17-5.18L73.53 0L48.13 0L48.38-1.98Q48.42-2.40 48.61-2.79Q48.80-3.18 49.07-3.53L49.07-3.53L69.10-30.98L53.05-30.98L53.67-36.15ZM99.75-36.15L126.08-36.15L125.40-30.83L115.50-30.83L111.70 0L105.25 0L109.03-30.83L99.10-30.83L99.75-36.15ZM162.88-20.50L162.88-20.50Q162.88-17.50 162.21-14.79Q161.55-12.08 160.31-9.75Q159.08-7.43 157.34-5.55Q155.60-3.68 153.44-2.35Q151.28-1.03 148.75-0.31Q146.23 0.40 143.45 0.40L143.45 0.40Q140 0.40 137.25-0.83Q134.50-2.05 132.56-4.20Q130.63-6.35 129.60-9.28Q128.58-12.20 128.58-15.63L128.58-15.63Q128.58-18.63 129.24-21.34Q129.90-24.05 131.14-26.38Q132.38-28.70 134.11-30.58Q135.85-32.45 138.01-33.79Q140.18-35.13 142.70-35.84Q145.23-36.55 148.03-36.55L148.03-36.55Q151.48-36.55 154.23-35.33Q156.98-34.10 158.90-31.95Q160.83-29.80 161.85-26.86Q162.88-23.93 162.88-20.50ZM156.23-20.35L156.23-20.35Q156.23-22.80 155.61-24.80Q155-26.80 153.84-28.23Q152.68-29.65 151-30.43Q149.33-31.20 147.23-31.20L147.23-31.20Q144.53-31.20 142.31-30.10Q140.10-29 138.53-26.98Q136.95-24.95 136.09-22.10Q135.23-19.25 135.23-15.78L135.23-15.78Q135.23-13.33 135.83-11.33Q136.43-9.33 137.58-7.91Q138.73-6.50 140.39-5.74Q142.05-4.98 144.18-4.98L144.18-4.98Q146.90-4.98 149.13-6.08Q151.35-7.18 152.93-9.18Q154.50-11.18 155.36-14.01Q156.23-16.85 156.23-20.35ZM195.60-36.15L194.95-30.98L180.40-30.98L179.05-19.98L191.33-19.98L190.65-14.80L178.43-14.80L176.60 0L170.08 0L174.53-36.15L195.60-36.15ZM226.40-36.15L225.75-30.98L211.20-30.98L209.85-19.98L222.13-19.98L221.45-14.80L209.23-14.80L207.40 0L200.88 0L205.33-36.15L226.40-36.15Z" opacity="1" transform="matrix(1,0,0,1,0,0)" fill="#ffffff" data-fill-palette-color="primary" data-stroke-palette-color="transparent" id="text-0" class="wordmark-0"></path></svg></g><g></g><g><circle r="38.975" cx="112.32500000000002" cy="18.475" fill="#ffffff" stroke-width="0" stroke="#ffffff" data-fill-palette-color="primary" data-stroke-palette-color="primary" id="circle-1" class="circle-1" mask="url(#df0e07a0-7008-11eb-9b04-8f1bd66661f7)" data-palette-color="#ffffff"></circle></g><g><svg version="1.1" xmlns:xlink="http://www.w3.org/1999/xlink" xmlns:svgjs="http://svgjs.com/svgjs" viewBox="1.04 -20.76 223.79000000000002 25.452" width="223.79000000000002" height="25.452" x="0.4300000000000068" y="66.95" data-palette-color="#ffffff"><path d="M9.49-2.86L9.49-2.86Q10.35-2.86 10.98-2.99Q11.62-3.12 12.09-3.33Q12.56-3.54 12.89-3.77Q13.23-4.00 13.48-4.21Q13.73-4.42 13.93-4.56Q14.13-4.69 14.32-4.69L14.32-4.69Q14.49-4.69 14.60-4.62Q14.71-4.55 14.78-4.48L14.78-4.48L16.06-2.90Q14.74-1.39 12.96-0.58Q11.19 0.22 8.88 0.22L8.88 0.22Q7.01 0.22 5.56-0.44Q4.10-1.11 3.09-2.28Q2.09-3.46 1.56-5.07Q1.04-6.68 1.04-8.58L1.04-8.58Q1.04-10.33 1.41-11.89Q1.79-13.45 2.49-14.78Q3.19-16.10 4.17-17.15Q5.15-18.20 6.34-18.94Q7.53-19.68 8.91-20.08Q10.29-20.47 11.79-20.47L11.79-20.47Q12.89-20.47 13.80-20.27Q14.71-20.06 15.46-19.70Q16.20-19.33 16.79-18.82Q17.37-18.31 17.85-17.68L17.85-17.68L16.59-16.17Q16.45-16.00 16.26-15.88Q16.07-15.75 15.79-15.75L15.79-15.75Q15.48-15.75 15.20-16.00Q14.92-16.25 14.50-16.55Q14.07-16.86 13.39-17.11Q12.71-17.36 11.61-17.36L11.61-17.36Q10.15-17.36 8.90-16.77Q7.66-16.17 6.73-15.06Q5.81-13.96 5.29-12.40Q4.76-10.84 4.76-8.89L4.76-8.89Q4.76-7.48 5.12-6.36Q5.47-5.24 6.10-4.46Q6.73-3.68 7.60-3.27Q8.47-2.86 9.49-2.86ZM33.70-2.45L33.70-2.45Q34.57-2.45 35.27-2.95Q35.97-3.44 36.46-4.28Q36.96-5.11 37.23-6.22Q37.49-7.32 37.49-8.54L37.49-8.54Q37.49-10.29 36.90-11.12Q36.30-11.94 35.10-11.94L35.10-11.94Q34.23-11.94 33.53-11.45Q32.83-10.96 32.34-10.12Q31.85-9.28 31.58-8.18Q31.32-7.07 31.32-5.84L31.32-5.84Q31.32-4.09 31.91-3.27Q32.49-2.45 33.70-2.45ZM33.39 0.21L33.39 0.21Q32.20 0.21 31.18-0.19Q30.17-0.59 29.43-1.36Q28.70-2.13 28.28-3.25Q27.86-4.37 27.86-5.81L27.86-5.81Q27.86-7.67 28.45-9.28Q29.05-10.89 30.08-12.07Q31.11-13.24 32.48-13.92Q33.85-14.59 35.41-14.59L35.41-14.59Q36.60-14.59 37.61-14.19Q38.63-13.79 39.37-13.02Q40.11-12.25 40.53-11.13Q40.95-10.01 40.95-8.57L40.95-8.57Q40.95-6.72 40.35-5.12Q39.75-3.51 38.72-2.33Q37.69-1.15 36.32-0.47Q34.94 0.21 33.39 0.21ZM55.41 4.69L52.05 4.69L54.38-14.38L56.13-14.38Q56.60-14.38 56.94-14.18Q57.27-13.97 57.27-13.51L57.27-13.51Q57.27-13.51 57.27-13.47Q57.27-13.43 57.26-13.21Q57.25-12.99 57.23-12.52Q57.22-12.05 57.18-11.20L57.18-11.20Q58.21-12.75 59.52-13.67Q60.83-14.59 62.29-14.59L62.29-14.59Q63.18-14.59 63.92-14.26Q64.65-13.93 65.17-13.27Q65.69-12.61 65.97-11.61Q66.25-10.60 66.25-9.24L66.25-9.24Q66.25-8.02 66.00-6.85Q65.74-5.67 65.28-4.62Q64.82-3.57 64.18-2.69Q63.55-1.81 62.76-1.16Q61.98-0.52 61.09-0.15Q60.20 0.21 59.25 0.21L59.25 0.21Q58.28 0.21 57.49-0.13Q56.70-0.48 56.13-1.09L56.13-1.09L55.41 4.69ZM60.94-11.87L60.94-11.87Q60.37-11.87 59.78-11.49Q59.19-11.10 58.65-10.42Q58.10-9.74 57.63-8.82Q57.16-7.90 56.83-6.83L56.83-6.83L56.41-3.35Q56.88-2.84 57.49-2.63Q58.10-2.42 58.70-2.42L58.70-2.42Q59.63-2.42 60.38-3.00Q61.14-3.57 61.68-4.49Q62.22-5.42 62.51-6.57Q62.80-7.73 62.80-8.89L62.80-8.89Q62.80-10.40 62.31-11.14Q61.82-11.87 60.94-11.87ZM91.78-14.36L82.29 3.98Q81.93 4.69 81.17 4.69L81.17 4.69L78.61 4.69L81.80-1.09L78.18-14.36L81.07-14.36Q81.45-14.36 81.64-14.18Q81.83-13.99 81.90-13.72L81.90-13.72L83.66-6.27Q83.75-5.91 83.80-5.56Q83.85-5.21 83.87-4.84L83.87-4.84Q84.03-5.21 84.19-5.57Q84.35-5.92 84.52-6.29L84.52-6.29L88.06-13.73Q88.20-14.01 88.47-14.19Q88.73-14.36 89.01-14.36L89.01-14.36L91.78-14.36ZM104.89 0L102.45-14.36L105.07-14.36Q105.43-14.36 105.67-14.18Q105.91-14 105.94-13.72L105.94-13.72L106.78-6.05Q106.85-5.42 106.85-4.83Q106.86-4.24 106.89-3.65L106.89-3.65Q107.10-4.24 107.33-4.83Q107.56-5.42 107.81-6.05L107.81-6.05L110.94-13.75Q111.05-14.03 111.30-14.21Q111.55-14.39 111.86-14.39L111.86-14.39L113.34-14.39Q113.71-14.39 113.92-14.21Q114.13-14.03 114.17-13.75L114.17-13.75L115.37-6.05Q115.47-5.42 115.54-4.83Q115.61-4.24 115.67-3.65L115.67-3.65Q115.82-4.24 116.00-4.83Q116.17-5.42 116.41-6.05L116.41-6.05L119.20-13.72Q119.29-14 119.55-14.18Q119.80-14.36 120.12-14.36L120.12-14.36L122.64-14.36L116.72 0L114.04 0Q113.61 0 113.51-0.62L113.51-0.62L112.14-8.92Q112.06-9.48 112.01-10.00L112.01-10.00Q111.92-9.72 111.82-9.44Q111.72-9.17 111.61-8.89L111.61-8.89L108.19-0.62Q107.94 0 107.45 0L107.45 0L104.89 0ZM136.39 0L133 0L134.75-14.38L136.50-14.38Q137.00-14.38 137.33-14.15Q137.65-13.93 137.65-13.44L137.65-13.44Q137.65-13.44 137.65-13.39Q137.65-13.34 137.63-13.10Q137.62-12.87 137.61-12.36Q137.59-11.84 137.55-10.92L137.55-10.92Q138.43-12.61 139.48-13.54Q140.53-14.46 141.67-14.46L141.67-14.46Q142.24-14.46 142.83-14.21L142.83-14.21L142.20-10.91Q141.50-11.20 140.87-11.20L140.87-11.20Q139.62-11.20 138.68-10.01Q137.75-8.82 137.14-6.29L137.14-6.29L136.39 0ZM155.57-14.36L158.98-14.36L157.26 0L153.85 0L155.57-14.36ZM159.85-18.55L159.85-18.55Q159.85-18.10 159.66-17.71Q159.47-17.32 159.17-17.02Q158.87-16.73 158.48-16.55Q158.09-16.38 157.67-16.38L157.67-16.38Q157.26-16.38 156.88-16.55Q156.49-16.73 156.20-17.02Q155.90-17.32 155.73-17.71Q155.55-18.10 155.55-18.55L155.55-18.55Q155.55-19.00 155.74-19.40Q155.92-19.81 156.21-20.11Q156.51-20.41 156.89-20.59Q157.28-20.76 157.68-20.76L157.68-20.76Q158.10-20.76 158.49-20.59Q158.89-20.41 159.19-20.12Q159.49-19.82 159.67-19.42Q159.85-19.01 159.85-18.55ZM172.44-2.93L172.44-2.93Q172.44-3.02 172.44-3.16Q172.44-3.29 172.46-3.55Q172.48-3.81 172.53-4.24Q172.58-4.66 172.66-5.33L172.66-5.33L173.46-11.77L172.10-11.77Q171.86-11.77 171.72-11.92Q171.57-12.07 171.57-12.36L171.57-12.36Q171.57-12.38 171.58-12.42Q171.58-12.46 171.60-12.61Q171.61-12.75 171.65-13.05Q171.68-13.34 171.74-13.87L171.74-13.87L173.92-14.25L175.07-18.17Q175.15-18.45 175.36-18.61Q175.56-18.76 175.85-18.76L175.85-18.76L177.70-18.76L177.14-14.24L180.61-14.24L180.32-11.77L176.83-11.77L176.06-5.52Q175.99-4.94 175.96-4.61Q175.92-4.27 175.90-4.08Q175.88-3.89 175.88-3.81Q175.87-3.74 175.87-3.71L175.87-3.71Q175.87-3.18 176.13-2.87Q176.39-2.56 176.86-2.56L176.86-2.56Q177.16-2.56 177.37-2.64Q177.58-2.72 177.73-2.80Q177.88-2.88 178.00-2.96Q178.12-3.04 178.23-3.04L178.23-3.04Q178.39-3.04 178.48-2.96Q178.57-2.88 178.64-2.73L178.64-2.73L179.38-1.05Q178.61-0.42 177.67-0.10Q176.74 0.22 175.78 0.22L175.78 0.22Q174.26 0.22 173.37-0.60Q172.48-1.43 172.44-2.93ZM203.52-11.03L203.52-11.03Q203.52-10.07 203.13-9.27Q202.75-8.47 201.75-7.84Q200.76-7.21 199.06-6.75Q197.36-6.30 194.73-6.03L194.73-6.03L194.73-5.85Q194.73-2.46 197.60-2.46L197.60-2.46Q198.21-2.46 198.69-2.58Q199.16-2.70 199.52-2.87Q199.88-3.04 200.16-3.25Q200.45-3.46 200.70-3.63Q200.94-3.79 201.18-3.91Q201.42-4.03 201.70-4.03L201.70-4.03Q201.87-4.03 202.03-3.96Q202.20-3.88 202.31-3.72L202.31-3.72L203.20-2.66Q202.45-1.92 201.74-1.37Q201.03-0.83 200.28-0.48Q199.54-0.13 198.72 0.04Q197.89 0.21 196.91 0.21L196.91 0.21Q195.65 0.21 194.63-0.22Q193.61-0.64 192.88-1.42Q192.15-2.20 191.75-3.30Q191.35-4.40 191.35-5.75L191.35-5.75Q191.35-6.89 191.60-7.98Q191.84-9.07 192.30-10.05Q192.77-11.03 193.44-11.86Q194.11-12.68 194.96-13.29Q195.80-13.89 196.82-14.22Q197.83-14.56 199.00-14.56L199.00-14.56Q200.13-14.56 200.98-14.24Q201.82-13.92 202.39-13.41Q202.96-12.89 203.24-12.26Q203.52-11.63 203.52-11.03ZM198.80-12.15L198.80-12.15Q198.10-12.15 197.50-11.87Q196.90-11.58 196.41-11.06Q195.93-10.54 195.57-9.82Q195.22-9.10 195.01-8.25L195.01-8.25Q196.74-8.48 197.80-8.76Q198.86-9.04 199.44-9.38Q200.02-9.72 200.21-10.09Q200.40-10.47 200.40-10.91L200.40-10.91Q200.40-11.12 200.31-11.34Q200.21-11.56 200.03-11.74Q199.84-11.91 199.53-12.03Q199.23-12.15 198.80-12.15ZM218.39 0L215.00 0L216.75-14.38L218.50-14.38Q219.00-14.38 219.32-14.15Q219.65-13.93 219.65-13.44L219.65-13.44Q219.65-13.44 219.65-13.39Q219.65-13.34 219.63-13.10Q219.62-12.87 219.60-12.36Q219.59-11.84 219.55-10.92L219.55-10.92Q220.43-12.61 221.48-13.54Q222.53-14.46 223.66-14.46L223.66-14.46Q224.24-14.46 224.83-14.21L224.83-14.21L224.20-10.91Q223.50-11.20 222.87-11.20L222.87-11.20Q221.62-11.20 220.68-10.01Q219.74-8.82 219.14-6.29L219.14-6.29L218.39 0Z" opacity="0.89" transform="matrix(1,0,0,1,0,0)" fill="#ffffff" data-fill-palette-color="secondary" data-stroke-palette-color="transparent" id="text-1" class="slogan-1"></path></svg></g><g><rect width="224.65000000000003" height="112.902" x="0" y="0" fill="transparent" opacity="1" rx="0" ry="0" stroke-width="0" stroke="transparent" fill-opacity="0" data-fill-palette-color="transparent" data-stroke-palette-color="transparent" id="rect-0" class="rect-0" data-palette-color="transparent"></rect></g><g></g></g><g id="character" width="233.38139999999999" height="233.38139999999999" style="display: none;" transform="matrix(1,0,0,1,100,120.5)"><path d="M119.23 58.35L106.97 157.69 149.41 157.69 147.4 175.04 83.97 175.04 98.33 58.35 119.23 58.35Z" fill="#ffffff"></path></g></g></svg>